# xmcd
#
# Track frame offsets: 
#        150
#        24445
#        41868
#        60438
#        80138
#        97431
#        115673
#        133381
#        150578
#        169446
#
# Disc length: 2490 seconds
#
# Revision: 0
# Processed by: cddbd v1.5.2PL0 Copyright (c) Steve Scherf et al.
# Submitted via: ExactAudioCopy v0.99pb4
#
DISCID=8d09b80a
DTITLE=Ne-Yo - Librascale
DYEAR=2010
DGENRE=R&B
TTITLE0=Champagne Life
TTITLE1=Makin' A Movie
TTITLE2=Know Your Name
TTITLE3=Telekinesis
TTITLE4=Crazy Love
TTITLE5=One In A Million
TTITLE6=Genuine Only
TTITLE7=Cause I Said So
TTITLE8=Beautiful Monster
TTITLE9=What Have I Done
EXTD=
EXTT0=
EXTT1=
EXTT2=
EXTT3=
EXTT4=
EXTT5=
EXTT6=
EXTT7=
EXTT8=
EXTT9=
PLAYORDER=
